<svg width="44" height="44" xmlns="http://www.w3.org/2000/svg" xmlns:xlink="http://www.w3.org/1999/xlink" xmlns:svgjs="http://svgjs.com/svgjs" viewBox="197 554 44 44"><svg width="44" height="44" xmlns="http://www.w3.org/2000/svg" xmlns:xlink="http://www.w3.org/1999/xlink" xmlns:svgjs="http://svgjs.com/svgjs" viewBox="0 0.056 44 43.888" fill="#fafafa" x="197" y="554"><svg xmlns="http://www.w3.org/2000/svg" xmlns:xlink="http://www.w3.org/1999/xlink" width="44" height="44" viewBox="1.263 1.807 41.856 41.75"><path paint-order="stroke fill markers" fill-rule="evenodd" d="M22.19 1.807c11.559 0 20.929 9.346 20.929 20.875s-9.37 20.875-20.928 20.875c-11.559 0-20.928-9.346-20.928-20.875S10.633 1.807 22.19 1.807z"/></svg></svg><svg width="18" height="18" xmlns="http://www.w3.org/2000/svg" xmlns:xlink="http://www.w3.org/1999/xlink" xmlns:svgjs="http://svgjs.com/svgjs" viewBox="0 0.023 18 17.954" fill="#bababa" x="210" y="567"><svg xmlns="http://www.w3.org/2000/svg" width="18" height="18" viewBox="1.158 1.495 16.263 16.221"><path paint-order="stroke fill markers" fill-rule="evenodd" d="M4.88 1.495h8.82a3.717 3.717 0 0 1 3.72 3.712v8.798a3.717 3.717 0 0 1-3.72 3.711H4.88a3.717 3.717 0 0 1-3.722-3.711V5.207a3.717 3.717 0 0 1 3.721-3.712zm.923 1.72h6.942a2.926 2.926 0 0 1 2.93 2.921v6.925a2.925 2.925 0 0 1-2.93 2.922H5.803a2.925 2.925 0 0 1-2.93-2.922V6.136a2.926 2.926 0 0 1 2.93-2.922z"/></svg></svg></svg>